<svg width="132" height="48" viewBox="0 0 132 48" fill="none" xmlns="http://www.w3.org/2000/svg">
<path d="M40.5 40.4999V21.6562C40.4966 21.4486 40.4518 21.2438 40.3681 21.0538C40.2843 20.8638 40.1634 20.6925 40.0125 20.5499L25.0125 6.91866C24.736 6.66569 24.3748 6.52539 24 6.52539C23.6252 6.52539 23.264 6.66569 22.9875 6.91866L7.9875 20.5499C7.83656 20.6925 7.71567 20.8638 7.63194 21.0538C7.54822 21.2438 7.50336 21.4486 7.5 21.6562V40.4999" stroke="#4A60A1" stroke-width="2.75" stroke-linecap="round" stroke-linejoin="round"/>
<path d="M3 40.5H45" stroke="#4A60A1" stroke-width="2.75" stroke-linecap="round" stroke-linejoin="round"/>
<path d="M28.5 40.5V30C28.5 29.6022 28.342 29.2206 28.0607 28.9393C27.7794 28.658 27.3978 28.5 27 28.5H21C20.6022 28.5 20.2206 28.658 19.9393 28.9393C19.658 29.2206 19.5 29.6022 19.5 30V40.5" stroke="#4A60A1" stroke-width="2.75" stroke-linecap="round" stroke-linejoin="round"/>
<path d="M60.0489 24.208C59.5116 24.208 59.0956 24.0607 58.8009 23.766C58.5236 23.454 58.3849 23.0293 58.3849 22.492V7.36C58.3849 6.80533 58.5323 6.38933 58.8269 6.112C59.1216 5.81733 59.5376 5.67 60.0749 5.67H66.3409C68.3516 5.67 69.9029 6.15533 70.9949 7.126C72.0869 8.07933 72.6329 9.42267 72.6329 11.156C72.6329 12.2827 72.3816 13.2533 71.8789 14.068C71.3936 14.8827 70.6829 15.5067 69.7469 15.94C68.8109 16.3733 67.6756 16.59 66.3409 16.59L66.5749 16.2H67.4329C68.1436 16.2 68.7589 16.3733 69.2789 16.72C69.8163 17.0667 70.2843 17.6127 70.6829 18.358L72.6329 21.972C72.8409 22.336 72.9363 22.6913 72.9189 23.038C72.9016 23.3847 72.7716 23.6707 72.5289 23.896C72.2863 24.104 71.9309 24.208 71.4629 24.208C70.9949 24.208 70.6136 24.1127 70.3189 23.922C70.0243 23.714 69.7643 23.402 69.5389 22.986L66.9129 18.15C66.6009 17.5607 66.2283 17.1707 65.7949 16.98C65.3789 16.772 64.8416 16.668 64.1829 16.668H61.7129V22.492C61.7129 23.0293 61.5743 23.454 61.2969 23.766C61.0196 24.0607 60.6036 24.208 60.0489 24.208ZM61.7129 14.198H65.7689C66.9649 14.198 67.8663 13.9553 68.4729 13.47C69.0969 12.9673 69.4089 12.222 69.4089 11.234C69.4089 10.2633 69.0969 9.53533 68.4729 9.05C67.8663 8.54733 66.9649 8.296 65.7689 8.296H61.7129V14.198ZM78.0292 24C77.4572 24 77.0152 23.8527 76.7032 23.558C76.4085 23.246 76.2612 22.804 76.2612 22.232V7.438C76.2612 6.866 76.4085 6.43267 76.7032 6.138C77.0152 5.826 77.4572 5.67 78.0292 5.67H87.3112C87.7445 5.67 88.0738 5.78267 88.2992 6.008C88.5418 6.23333 88.6632 6.554 88.6632 6.97C88.6632 7.40333 88.5418 7.74133 88.2992 7.984C88.0738 8.20933 87.7445 8.322 87.3112 8.322H79.4592V13.366H86.7392C87.1898 13.366 87.5278 13.4787 87.7532 13.704C87.9785 13.9293 88.0912 14.2587 88.0912 14.692C88.0912 15.1253 87.9785 15.4547 87.7532 15.68C87.5278 15.9053 87.1898 16.018 86.7392 16.018H79.4592V21.348H87.3112C87.7445 21.348 88.0738 21.4607 88.2992 21.686C88.5418 21.9113 88.6632 22.2407 88.6632 22.674C88.6632 23.1073 88.5418 23.4367 88.2992 23.662C88.0738 23.8873 87.7445 24 87.3112 24H78.0292ZM93.4908 24.208C92.9535 24.208 92.5375 24.0607 92.2428 23.766C91.9655 23.454 91.8268 23.0293 91.8268 22.492V7.178C91.8268 6.62333 91.9655 6.19867 92.2428 5.904C92.5375 5.60933 92.9535 5.462 93.4908 5.462C94.0282 5.462 94.4355 5.60933 94.7128 5.904C95.0075 6.19867 95.1548 6.62333 95.1548 7.178V22.492C95.1548 23.0293 95.0162 23.454 94.7388 23.766C94.4615 24.0607 94.0455 24.208 93.4908 24.208ZM105.535 24.26C104.772 24.26 104.009 24.1993 103.247 24.078C102.484 23.974 101.765 23.8093 101.089 23.584C100.413 23.3413 99.8061 23.0467 99.2687 22.7C98.9567 22.492 98.7401 22.2407 98.6187 21.946C98.4974 21.6513 98.4541 21.3653 98.4887 21.088C98.5407 20.7933 98.6534 20.542 98.8267 20.334C99.0174 20.1087 99.2514 19.97 99.5287 19.918C99.8061 19.866 100.109 19.944 100.439 20.152C101.201 20.6027 102.007 20.932 102.857 21.14C103.706 21.348 104.599 21.452 105.535 21.452C106.904 21.452 107.901 21.2267 108.525 20.776C109.149 20.308 109.461 19.71 109.461 18.982C109.461 18.3753 109.235 17.8987 108.785 17.552C108.351 17.2053 107.597 16.9193 106.523 16.694L103.663 16.096C102.016 15.7493 100.785 15.1687 99.9707 14.354C99.1734 13.522 98.7747 12.43 98.7747 11.078C98.7747 10.2287 98.9481 9.45733 99.2947 8.764C99.6414 8.07067 100.127 7.47267 100.751 6.97C101.392 6.46733 102.146 6.086 103.013 5.826C103.897 5.54867 104.867 5.41 105.925 5.41C106.965 5.41 107.953 5.54 108.889 5.8C109.825 6.06 110.665 6.44133 111.411 6.944C111.688 7.13467 111.87 7.36867 111.957 7.646C112.061 7.92333 112.087 8.20067 112.035 8.478C111.983 8.738 111.861 8.96333 111.671 9.154C111.48 9.34467 111.237 9.45733 110.943 9.492C110.665 9.52667 110.345 9.44 109.981 9.232C109.339 8.868 108.689 8.608 108.031 8.452C107.372 8.296 106.661 8.218 105.899 8.218C105.101 8.218 104.417 8.33067 103.845 8.556C103.273 8.78133 102.831 9.102 102.519 9.518C102.224 9.91667 102.077 10.3933 102.077 10.948C102.077 11.572 102.285 12.0747 102.701 12.456C103.117 12.82 103.827 13.106 104.833 13.314L107.667 13.912C109.383 14.276 110.657 14.848 111.489 15.628C112.338 16.408 112.763 17.448 112.763 18.748C112.763 19.58 112.589 20.334 112.243 21.01C111.913 21.686 111.428 22.2667 110.787 22.752C110.163 23.2373 109.409 23.61 108.525 23.87C107.641 24.13 106.644 24.26 105.535 24.26Z" fill="#4A60A1"/>
<path d="M58.3237 41.112C58.057 41.112 57.849 41.0373 57.6997 40.888C57.561 40.7387 57.4917 40.5307 57.4917 40.264V30.568C57.4917 30.2907 57.5664 30.0827 57.7157 29.944C57.865 29.7947 58.073 29.72 58.3397 29.72H62.1637C63.3797 29.72 64.3184 30.008 64.9797 30.584C65.641 31.16 65.9717 31.976 65.9717 33.032C65.9717 33.7147 65.8224 34.3013 65.5237 34.792C65.225 35.2827 64.7877 35.656 64.2117 35.912C63.6464 36.168 62.9637 36.296 62.1637 36.296L62.3077 36.072H62.7237C63.1504 36.072 63.5184 36.1787 63.8277 36.392C64.1477 36.6053 64.4357 36.9467 64.6917 37.416L66.0677 39.976C66.1744 40.168 66.2224 40.3547 66.2117 40.536C66.2117 40.7067 66.1477 40.8453 66.0197 40.952C65.9024 41.0587 65.7317 41.112 65.5077 41.112C65.273 41.112 65.081 41.064 64.9317 40.968C64.793 40.8613 64.665 40.7067 64.5477 40.504L62.8677 37.4C62.6437 36.984 62.3877 36.7067 62.0997 36.568C61.8117 36.4187 61.433 36.344 60.9637 36.344H59.1557V40.264C59.1557 40.5307 59.0864 40.7387 58.9477 40.888C58.809 41.0373 58.601 41.112 58.3237 41.112ZM59.1557 35.096H61.8917C62.7024 35.096 63.3157 34.9253 63.7317 34.584C64.1477 34.2427 64.3557 33.736 64.3557 33.064C64.3557 32.4027 64.1477 31.9013 63.7317 31.56C63.3157 31.2187 62.7024 31.048 61.8917 31.048H59.1557V35.096ZM71.6203 41.144C70.767 41.144 70.031 40.984 69.4123 40.664C68.8043 40.3333 68.3296 39.8693 67.9883 39.272C67.6576 38.664 67.4923 37.944 67.4923 37.112C67.4923 36.3013 67.6576 35.592 67.9883 34.984C68.319 34.376 68.7723 33.9013 69.3483 33.56C69.9243 33.2187 70.5803 33.048 71.3163 33.048C71.8603 33.048 72.3456 33.1387 72.7723 33.32C73.199 33.4907 73.5616 33.7467 73.8603 34.088C74.1696 34.4187 74.399 34.824 74.5483 35.304C74.7083 35.784 74.7883 36.3227 74.7883 36.92C74.7883 37.1013 74.735 37.24 74.6283 37.336C74.5216 37.4213 74.3616 37.464 74.1483 37.464H68.7723V36.472H73.7003L73.4283 36.696C73.4283 36.1627 73.3483 35.7093 73.1883 35.336C73.039 34.9627 72.8096 34.68 72.5003 34.488C72.2016 34.2853 71.8283 34.184 71.3803 34.184C70.879 34.184 70.4523 34.3013 70.1003 34.536C69.759 34.7707 69.4976 35.096 69.3163 35.512C69.135 35.928 69.0443 36.4133 69.0443 36.968V37.064C69.0443 38.0027 69.263 38.712 69.7003 39.192C70.1483 39.6613 70.7936 39.896 71.6363 39.896C71.9563 39.896 72.2923 39.8533 72.6443 39.768C73.007 39.6827 73.3483 39.5387 73.6683 39.336C73.8496 39.2293 74.0096 39.1813 74.1483 39.192C74.2976 39.2027 74.415 39.2507 74.5003 39.336C74.5963 39.4213 74.655 39.528 74.6763 39.656C74.6976 39.784 74.6763 39.9173 74.6123 40.056C74.5483 40.184 74.4363 40.3013 74.2763 40.408C73.9136 40.6533 73.4923 40.84 73.0123 40.968C72.5323 41.0853 72.0683 41.144 71.6203 41.144ZM79.0461 41.144C78.5021 41.144 78.0114 41.0373 77.5741 40.824C77.1474 40.6107 76.8114 40.3227 76.5661 39.96C76.3207 39.5973 76.1981 39.1867 76.1981 38.728C76.1981 38.152 76.3421 37.6987 76.6301 37.368C76.9287 37.0267 77.4141 36.7867 78.0861 36.648C78.7687 36.4987 79.6861 36.424 80.8381 36.424H81.5901V37.416H80.8541C80.0861 37.416 79.4781 37.4533 79.0301 37.528C78.5821 37.6027 78.2621 37.7307 78.0701 37.912C77.8887 38.0827 77.7981 38.3227 77.7981 38.632C77.7981 39.0373 77.9367 39.368 78.2141 39.624C78.4914 39.8693 78.8754 39.992 79.3661 39.992C79.7607 39.992 80.1074 39.9013 80.4061 39.72C80.7047 39.528 80.9394 39.272 81.1101 38.952C81.2914 38.632 81.3821 38.264 81.3821 37.848V36.008C81.3821 35.4 81.2541 34.9627 80.9981 34.696C80.7421 34.4293 80.3207 34.296 79.7341 34.296C79.3927 34.296 79.0354 34.3387 78.6621 34.424C78.2994 34.5093 77.9207 34.6533 77.5261 34.856C77.3447 34.9413 77.1901 34.968 77.0621 34.936C76.9341 34.904 76.8327 34.8347 76.7581 34.728C76.6834 34.6107 76.6407 34.488 76.6301 34.36C76.6301 34.2213 76.6621 34.088 76.7261 33.96C76.8007 33.832 76.9234 33.736 77.0941 33.672C77.5634 33.448 78.0274 33.288 78.4861 33.192C78.9447 33.096 79.3767 33.048 79.7821 33.048C80.4967 33.048 81.0834 33.16 81.5421 33.384C82.0114 33.608 82.3581 33.9493 82.5821 34.408C82.8061 34.8667 82.9181 35.4587 82.9181 36.184V40.296C82.9181 40.552 82.8541 40.7547 82.7261 40.904C82.5981 41.0427 82.4114 41.112 82.1661 41.112C81.9314 41.112 81.7447 41.0427 81.6061 40.904C81.4674 40.7547 81.3981 40.552 81.3981 40.296V39.256H81.5421C81.4567 39.6507 81.2967 39.992 81.0621 40.28C80.8381 40.5573 80.5554 40.7707 80.2141 40.92C79.8727 41.0693 79.4834 41.144 79.0461 41.144ZM87.6558 41.144C86.8238 41.144 86.1945 40.904 85.7678 40.424C85.3518 39.9333 85.1438 39.2293 85.1438 38.312V30.424C85.1438 30.1573 85.2131 29.9547 85.3518 29.816C85.4905 29.6773 85.6878 29.608 85.9438 29.608C86.1998 29.608 86.3971 29.6773 86.5358 29.816C86.6851 29.9547 86.7598 30.1573 86.7598 30.424V38.216C86.7598 38.7493 86.8665 39.1493 87.0798 39.416C87.3038 39.672 87.6238 39.8 88.0398 39.8C88.1358 39.8 88.2211 39.8 88.2958 39.8C88.3705 39.7893 88.4451 39.7787 88.5198 39.768C88.6478 39.7573 88.7385 39.7947 88.7918 39.88C88.8451 39.9547 88.8718 40.1147 88.8718 40.36C88.8718 40.584 88.8238 40.76 88.7278 40.888C88.6318 41.0053 88.4771 41.08 88.2638 41.112C88.1678 41.1227 88.0665 41.128 87.9598 41.128C87.8531 41.1387 87.7518 41.144 87.6558 41.144ZM98.1892 41.144C97.6985 41.144 97.2185 41.1067 96.7492 41.032C96.2799 40.9573 95.8372 40.8453 95.4212 40.696C95.0052 40.536 94.6319 40.344 94.3012 40.12C94.1412 40.0027 94.0292 39.8693 93.9652 39.72C93.9119 39.5707 93.8959 39.4267 93.9172 39.288C93.9492 39.1387 94.0132 39.0107 94.1092 38.904C94.2052 38.7973 94.3225 38.7333 94.4612 38.712C94.5999 38.68 94.7545 38.7227 94.9252 38.84C95.4052 39.1493 95.9119 39.3787 96.4452 39.528C96.9785 39.6667 97.5599 39.736 98.1892 39.736C99.0959 39.736 99.7625 39.576 100.189 39.256C100.627 38.9253 100.845 38.4987 100.845 37.976C100.845 37.5493 100.691 37.2133 100.381 36.968C100.072 36.712 99.5545 36.5093 98.8292 36.36L97.1172 36.008C96.1039 35.7947 95.3465 35.4427 94.8452 34.952C94.3545 34.4613 94.1092 33.8 94.1092 32.968C94.1092 32.4667 94.2105 32.008 94.4132 31.592C94.6265 31.176 94.9199 30.8187 95.2932 30.52C95.6665 30.2107 96.1145 29.976 96.6372 29.816C97.1599 29.656 97.7305 29.576 98.3492 29.576C99.0105 29.576 99.6292 29.6613 100.205 29.832C100.792 30.0027 101.315 30.264 101.773 30.616C101.912 30.712 102.003 30.8347 102.045 30.984C102.099 31.1227 102.109 31.2613 102.077 31.4C102.056 31.5387 101.997 31.656 101.901 31.752C101.805 31.848 101.683 31.9067 101.533 31.928C101.384 31.9387 101.219 31.8853 101.037 31.768C100.621 31.4907 100.195 31.2933 99.7572 31.176C99.3305 31.048 98.8559 30.984 98.3332 30.984C97.8105 30.984 97.3519 31.064 96.9572 31.224C96.5732 31.384 96.2745 31.608 96.0612 31.896C95.8585 32.184 95.7572 32.5253 95.7572 32.92C95.7572 33.368 95.9012 33.7253 96.1892 33.992C96.4772 34.2587 96.9572 34.4613 97.6292 34.6L99.3252 34.952C100.392 35.176 101.187 35.5227 101.709 35.992C102.232 36.4613 102.493 37.0853 102.493 37.864C102.493 38.3653 102.392 38.8187 102.189 39.224C101.987 39.6187 101.699 39.96 101.325 40.248C100.952 40.536 100.499 40.76 99.9652 40.92C99.4425 41.0693 98.8505 41.144 98.1892 41.144ZM107.487 41.144C106.847 41.144 106.309 41.032 105.871 40.808C105.434 40.584 105.109 40.2533 104.895 39.816C104.682 39.3787 104.575 38.8453 104.575 38.216V34.44H103.615C103.402 34.44 103.237 34.3867 103.119 34.28C103.002 34.1627 102.943 34.008 102.943 33.816C102.943 33.6133 103.002 33.4587 103.119 33.352C103.237 33.2453 103.402 33.192 103.615 33.192H104.575V31.544C104.575 31.2773 104.645 31.0747 104.783 30.936C104.933 30.7973 105.135 30.728 105.391 30.728C105.647 30.728 105.845 30.7973 105.983 30.936C106.122 31.0747 106.191 31.2773 106.191 31.544V33.192H108.063C108.277 33.192 108.442 33.2453 108.559 33.352C108.677 33.4587 108.735 33.6133 108.735 33.816C108.735 34.008 108.677 34.1627 108.559 34.28C108.442 34.3867 108.277 34.44 108.063 34.44H106.191V38.088C106.191 38.6533 106.309 39.08 106.543 39.368C106.789 39.656 107.183 39.8 107.727 39.8C107.919 39.8 108.085 39.784 108.223 39.752C108.373 39.7093 108.495 39.6827 108.591 39.672C108.709 39.672 108.805 39.7147 108.879 39.8C108.954 39.8747 108.991 40.024 108.991 40.248C108.991 40.408 108.959 40.5573 108.895 40.696C108.842 40.8347 108.741 40.9253 108.591 40.968C108.463 41.0107 108.287 41.048 108.063 41.08C107.85 41.1227 107.658 41.144 107.487 41.144ZM112.499 41.144C111.955 41.144 111.465 41.0373 111.027 40.824C110.601 40.6107 110.265 40.3227 110.019 39.96C109.774 39.5973 109.651 39.1867 109.651 38.728C109.651 38.152 109.795 37.6987 110.083 37.368C110.382 37.0267 110.867 36.7867 111.539 36.648C112.222 36.4987 113.139 36.424 114.291 36.424H115.043V37.416H114.307C113.539 37.416 112.931 37.4533 112.483 37.528C112.035 37.6027 111.715 37.7307 111.523 37.912C111.342 38.0827 111.251 38.3227 111.251 38.632C111.251 39.0373 111.39 39.368 111.667 39.624C111.945 39.8693 112.329 39.992 112.819 39.992C113.214 39.992 113.561 39.9013 113.859 39.72C114.158 39.528 114.393 39.272 114.563 38.952C114.745 38.632 114.835 38.264 114.835 37.848V36.008C114.835 35.4 114.707 34.9627 114.451 34.696C114.195 34.4293 113.774 34.296 113.187 34.296C112.846 34.296 112.489 34.3387 112.115 34.424C111.753 34.5093 111.374 34.6533 110.979 34.856C110.798 34.9413 110.643 34.968 110.515 34.936C110.387 34.904 110.286 34.8347 110.211 34.728C110.137 34.6107 110.094 34.488 110.083 34.36C110.083 34.2213 110.115 34.088 110.179 33.96C110.254 33.832 110.377 33.736 110.547 33.672C111.017 33.448 111.481 33.288 111.939 33.192C112.398 33.096 112.83 33.048 113.235 33.048C113.95 33.048 114.537 33.16 114.995 33.384C115.465 33.608 115.811 33.9493 116.035 34.408C116.259 34.8667 116.371 35.4587 116.371 36.184V40.296C116.371 40.552 116.307 40.7547 116.179 40.904C116.051 41.0427 115.865 41.112 115.619 41.112C115.385 41.112 115.198 41.0427 115.059 40.904C114.921 40.7547 114.851 40.552 114.851 40.296V39.256H114.995C114.91 39.6507 114.75 39.992 114.515 40.28C114.291 40.5573 114.009 40.7707 113.667 40.92C113.326 41.0693 112.937 41.144 112.499 41.144ZM121.925 41.144C121.285 41.144 120.746 41.032 120.309 40.808C119.872 40.584 119.546 40.2533 119.333 39.816C119.12 39.3787 119.013 38.8453 119.013 38.216V34.44H118.053C117.84 34.44 117.674 34.3867 117.557 34.28C117.44 34.1627 117.381 34.008 117.381 33.816C117.381 33.6133 117.44 33.4587 117.557 33.352C117.674 33.2453 117.84 33.192 118.053 33.192H119.013V31.544C119.013 31.2773 119.082 31.0747 119.221 30.936C119.37 30.7973 119.573 30.728 119.829 30.728C120.085 30.728 120.282 30.7973 120.421 30.936C120.56 31.0747 120.629 31.2773 120.629 31.544V33.192H122.501C122.714 33.192 122.88 33.2453 122.997 33.352C123.114 33.4587 123.173 33.6133 123.173 33.816C123.173 34.008 123.114 34.1627 122.997 34.28C122.88 34.3867 122.714 34.44 122.501 34.44H120.629V38.088C120.629 38.6533 120.746 39.08 120.981 39.368C121.226 39.656 121.621 39.8 122.165 39.8C122.357 39.8 122.522 39.784 122.661 39.752C122.81 39.7093 122.933 39.6827 123.029 39.672C123.146 39.672 123.242 39.7147 123.317 39.8C123.392 39.8747 123.429 40.024 123.429 40.248C123.429 40.408 123.397 40.5573 123.333 40.696C123.28 40.8347 123.178 40.9253 123.029 40.968C122.901 41.0107 122.725 41.048 122.501 41.08C122.288 41.1227 122.096 41.144 121.925 41.144ZM128.027 41.144C127.173 41.144 126.437 40.984 125.819 40.664C125.211 40.3333 124.736 39.8693 124.395 39.272C124.064 38.664 123.899 37.944 123.899 37.112C123.899 36.3013 124.064 35.592 124.395 34.984C124.725 34.376 125.179 33.9013 125.755 33.56C126.331 33.2187 126.987 33.048 127.723 33.048C128.267 33.048 128.752 33.1387 129.179 33.32C129.605 33.4907 129.968 33.7467 130.267 34.088C130.576 34.4187 130.805 34.824 130.955 35.304C131.115 35.784 131.195 36.3227 131.195 36.92C131.195 37.1013 131.141 37.24 131.035 37.336C130.928 37.4213 130.768 37.464 130.555 37.464H125.179V36.472H130.107L129.835 36.696C129.835 36.1627 129.755 35.7093 129.595 35.336C129.445 34.9627 129.216 34.68 128.907 34.488C128.608 34.2853 128.235 34.184 127.787 34.184C127.285 34.184 126.859 34.3013 126.507 34.536C126.165 34.7707 125.904 35.096 125.723 35.512C125.541 35.928 125.451 36.4133 125.451 36.968V37.064C125.451 38.0027 125.669 38.712 126.107 39.192C126.555 39.6613 127.2 39.896 128.043 39.896C128.363 39.896 128.699 39.8533 129.051 39.768C129.413 39.6827 129.755 39.5387 130.075 39.336C130.256 39.2293 130.416 39.1813 130.555 39.192C130.704 39.2027 130.821 39.2507 130.907 39.336C131.003 39.4213 131.061 39.528 131.083 39.656C131.104 39.784 131.083 39.9173 131.019 40.056C130.955 40.184 130.843 40.3013 130.683 40.408C130.32 40.6533 129.899 40.84 129.419 40.968C128.939 41.0853 128.475 41.144 128.027 41.144Z" fill="#4A60A1"/>
</svg>
