<svg width="6" height="6" viewBox="0 0 6 6" fill="none" xmlns="http://www.w3.org/2000/svg">
<path d="M1.89529 5.66717C1.26336 5.66717 0.693656 5.28651 0.451789 4.70271C0.209921 4.1189 0.343517 3.44688 0.790288 2.99998L1.45341 2.33685L1.89529 2.77873L1.23248 3.44154C0.99562 3.67839 0.903117 4.02362 0.989812 4.34717C1.07651 4.67072 1.32923 4.92344 1.65278 5.01014C1.97633 5.09684 2.32156 5.00433 2.55841 4.76748L3.22123 4.10466L3.6631 4.54685L3.00029 5.20966C2.70781 5.50358 2.30993 5.66831 1.89529 5.66717ZM2.11623 4.3256L1.67435 3.88373L3.88404 1.67404L4.32591 2.11591L2.11654 4.32529L2.11623 4.3256ZM4.54716 3.66279L4.10498 3.22091L4.76779 2.5581C5.00787 2.32195 5.10285 1.97518 5.01661 1.64966C4.93038 1.32413 4.67617 1.06987 4.35067 0.983552C4.02516 0.897238 3.67837 0.992138 3.44216 1.23216L2.77904 1.89498L2.33716 1.4531L3.00029 0.789976C3.61125 0.18434 4.59684 0.186498 5.20515 0.794804C5.81345 1.40311 5.81561 2.3887 5.20998 2.99966L4.54716 3.66248V3.66279Z" fill="#516CF7"/>
</svg>
