<svg width="6" height="8" viewBox="0 0 6 8" fill="none" xmlns="http://www.w3.org/2000/svg">
<path d="M2.04529 7.12506C1.52501 7.12908 1.05895 6.80396 0.883109 6.31427C0.707266 5.82458 0.860028 5.27724 1.26404 4.9494C0.977482 4.71747 0.81099 4.36852 0.81099 3.99987C0.81099 3.63121 0.977482 3.28226 1.26404 3.05033C0.859899 2.72259 0.707045 2.17522 0.882921 1.68551C1.0588 1.1958 1.52498 0.870746 2.04529 0.87498H3.95467C4.47498 0.870746 4.94117 1.1958 5.11704 1.68551C5.29292 2.17522 5.14006 2.72259 4.73592 3.05033C5.13994 3.37818 5.2927 3.92552 5.11685 4.41521C4.94101 4.90489 4.47495 5.23002 3.95467 5.22596C3.71435 5.22625 3.47919 5.1563 3.27811 5.02471V5.89971C3.27518 6.57814 2.72373 7.12623 2.04529 7.12506ZM2.03842 5.22627C1.66827 5.23212 1.37239 5.53588 1.37627 5.90605C1.38015 6.27623 1.68234 6.57372 2.05253 6.57181C2.42272 6.56988 2.72181 6.26927 2.72186 5.89908V5.22627H2.03811H2.03842ZM3.95498 3.32721C3.58385 3.3291 3.28435 3.63117 3.28561 4.0023C3.28687 4.37343 3.58842 4.67345 3.95956 4.67282C4.33069 4.6722 4.63123 4.37116 4.63123 4.00002C4.62985 3.62754 4.32715 3.32652 3.95467 3.32721H3.95498ZM2.04561 3.3272C1.80523 3.32592 1.58244 3.45298 1.46114 3.6605C1.33984 3.86803 1.33847 4.1245 1.45754 4.33332C1.57662 4.54213 1.79805 4.67155 2.03842 4.67283H2.72186V3.3272H2.04561ZM3.27811 1.42815V2.77409H3.95436C4.31608 2.77577 4.61452 2.4914 4.63029 2.13002V2.26596V2.10096C4.62875 1.72892 4.32671 1.42815 3.95467 1.42815H3.27811ZM2.04498 1.42815C1.80461 1.42815 1.5825 1.55638 1.46231 1.76455C1.34212 1.97272 1.34212 2.2292 1.46231 2.43737C1.5825 2.64553 1.80461 2.77377 2.04498 2.77377H2.72186V1.42815H2.04498Z" fill="#516CF7"/>
</svg>
