<svg width="7" height="7" viewBox="0 0 7 7" fill="none" xmlns="http://www.w3.org/2000/svg">
<path d="M3.19368 0.72894C1.9641 0.968918 0.973253 1.95728 0.730799 3.18315C0.273106 5.49633 2.35994 7.22071 3.93218 6.97702C4.44183 6.89785 4.6917 6.30162 4.45791 5.84269C4.17216 5.2811 4.58037 4.62549 5.21124 4.62549H6.19714C6.63999 4.62549 6.99872 4.25933 6.99996 3.81773C6.99377 1.86822 5.2199 0.334337 3.19368 0.72894ZM1.854 4.62549C1.63505 4.62549 1.45816 4.4486 1.45816 4.22965C1.45816 4.0107 1.63505 3.83381 1.854 3.83381C2.07295 3.83381 2.24985 4.0107 2.24985 4.22965C2.24985 4.4486 2.07295 4.62549 1.854 4.62549ZM2.24985 3.04213C2.0309 3.04213 1.854 2.86524 1.854 2.64629C1.854 2.42734 2.0309 2.25045 2.24985 2.25045C2.4688 2.25045 2.64569 2.42734 2.64569 2.64629C2.64569 2.86524 2.4688 3.04213 2.24985 3.04213ZM3.83322 2.25045C3.61427 2.25045 3.43737 2.07356 3.43737 1.85461C3.43737 1.63566 3.61427 1.45877 3.83322 1.45877C4.05217 1.45877 4.22906 1.63566 4.22906 1.85461C4.22906 2.07356 4.05217 2.25045 3.83322 2.25045ZM5.41659 3.04213C5.19764 3.04213 5.02075 2.86524 5.02075 2.64629C5.02075 2.42734 5.19764 2.25045 5.41659 2.25045C5.63554 2.25045 5.81243 2.42734 5.81243 2.64629C5.81243 2.86524 5.63554 3.04213 5.41659 3.04213Z" fill="#9251F7"/>
</svg>
